<svg width="9" height="19" viewBox="0 0 9 19" fill="none" xmlns="http://www.w3.org/2000/svg">
<path d="M3.29263 6.64646C3.4862 6.12795 3.94778 5.77441 4.67738 5.58586C5.36231 5.39731 6.00257 5.42088 6.59816 5.65657C7.20864 5.90797 7.4841 6.3165 7.42454 6.88216C7.26076 7.4321 7.0523 8.10774 6.79917 8.90909C6.56094 9.69473 6.33015 10.5039 6.1068 11.3367C5.51121 13.4736 5.16874 14.982 5.0794 15.862C4.85606 17.2761 4.48381 18.0382 3.96267 18.1481C3.81377 18.1796 3.67232 18.2031 3.53831 18.2189C3.21073 18.2346 3.00228 18.3288 2.91294 18.5017C2.8236 18.6745 2.6747 18.8002 2.46625 18.8788C2.25779 18.9731 2.027 19.0123 1.77387 18.9966C1.53563 18.9966 1.28995 18.9338 1.03683 18.8081C0.783699 18.6981 0.567797 18.5331 0.38912 18.3131C-0.0277943 17.7789 -0.109688 17.064 0.143438 16.1684C0.381675 14.4557 0.984711 12.2795 1.95255 9.63973C2.41413 8.33558 2.86082 7.33782 3.29263 6.64646ZM7.51388 3.11111C6.78428 3.26824 6.18869 3.2211 5.72711 2.9697C5.28042 2.71829 5.01984 2.41975 4.9454 2.07407C4.87095 1.71268 4.97517 1.34343 5.25808 0.96633C5.58566 0.494949 6.07702 0.188552 6.73217 0.0471373C7.02997 0.0157124 7.24587 0 7.37988 0C7.51388 0 7.67767 0.0314256 7.87124 0.0942765C8.3626 0.141415 8.68273 0.369248 8.83163 0.777778C9.04009 1.12346 9.05498 1.51627 8.8763 1.95623C8.71251 2.39618 8.25837 2.78114 7.51388 3.11111Z" fill="#F33A73"/>
</svg>
