<svg width="2195" height="400" viewBox="0 0 2195 400" fill="none" xmlns="http://www.w3.org/2000/svg">
<path d="M2031.07 327.892L1950.21 142.134H2004.36L2059.58 275.356L2123.41 142.134H2176.67L2050.8 398H1996.65L2031.07 327.892ZM1834.16 289.432C1838.94 288.344 1843.55 286.625 1847.88 284.321C1852.06 282.096 1855.94 279.355 1859.44 276.163C1862.94 272.963 1865.96 269.28 1868.41 265.226C1870.98 260.967 1872.97 256.384 1874.33 251.599C1875.8 246.378 1876.52 240.975 1876.48 235.551C1876.53 230.068 1875.8 224.605 1874.33 219.324C1872.97 214.539 1870.98 209.956 1868.41 205.697C1865.94 201.626 1862.92 197.915 1859.44 194.67C1855.99 191.45 1852.09 188.734 1847.88 186.601C1843.52 184.409 1838.92 182.753 1834.16 181.671C1829.16 180.525 1824.05 179.953 1818.92 179.967C1813.82 179.95 1808.74 180.521 1803.77 181.671C1799.07 182.754 1794.53 184.41 1790.23 186.601C1786.03 188.762 1782.14 191.476 1778.67 194.67C1775.14 197.897 1772.09 201.61 1769.61 205.697C1767.05 209.947 1765.09 214.534 1763.78 219.324C1762.37 224.615 1761.67 230.074 1761.72 235.551C1761.68 240.969 1762.37 246.367 1763.78 251.599C1765.09 256.389 1767.05 260.976 1769.61 265.226C1772.08 269.296 1775.13 272.981 1778.67 276.163C1782.19 279.329 1786.07 282.067 1790.23 284.321C1794.49 286.624 1799.05 288.343 1803.77 289.432C1808.74 290.583 1813.82 291.155 1818.92 291.135C1824.05 291.151 1829.16 290.58 1834.16 289.432ZM1779.56 331.03C1771.26 328.918 1763.27 325.722 1755.81 321.527C1741.26 313.346 1729.25 301.31 1721.11 286.743C1716.91 279.211 1713.72 271.164 1711.61 262.806C1707.18 244.845 1707.18 226.079 1711.61 208.118C1713.71 199.785 1716.91 191.766 1721.11 184.271C1729.29 169.755 1741.29 157.756 1755.81 149.576C1763.27 145.381 1771.26 142.186 1779.56 140.073C1788.44 137.821 1797.57 136.706 1806.73 136.756C1811.67 136.744 1816.61 137.044 1821.52 137.652C1826.03 138.211 1830.5 139.11 1834.88 140.342C1838.94 141.494 1842.92 142.901 1846.8 144.555C1850.44 146.101 1853.94 147.93 1857.29 150.024C1860.44 151.995 1863.38 154.278 1866.08 156.837C1868.6 159.229 1870.93 161.806 1873.07 164.548V142.134H1924.53V328.968H1873.07V306.555C1869.78 310.683 1866.02 314.414 1861.86 317.672C1857.27 321.278 1852.24 324.291 1846.89 326.637C1840.94 329.249 1834.72 331.174 1828.33 332.375C1821.21 333.723 1813.98 334.384 1806.73 334.347C1797.57 334.396 1788.44 333.282 1779.56 331.03ZM1592.74 189.47C1600.11 189.605 1607.47 188.761 1614.62 186.96C1620.19 185.553 1625.39 182.953 1629.86 179.34C1633.89 175.975 1636.98 171.619 1638.82 166.699C1640.83 161.124 1641.8 155.23 1641.69 149.306C1641.81 143.412 1640.84 137.546 1638.82 132.004C1636.98 127.137 1633.89 122.84 1629.86 119.542C1625.37 115.983 1620.17 113.416 1614.62 112.011C1607.47 110.212 1600.11 109.368 1592.74 109.501H1542.18V189.47L1592.74 189.47ZM1488.93 65.3926H1597.76C1614.86 65.3926 1629.68 67.4845 1642.23 71.6682C1654.78 75.852 1665.12 81.6495 1673.25 89.0606C1681.34 96.4089 1687.57 105.563 1691.45 115.777C1695.52 126.545 1697.56 137.974 1697.46 149.486C1697.58 160.97 1695.55 172.376 1691.45 183.105C1687.51 193.234 1681.28 202.316 1673.25 209.642C1665.12 217.115 1654.78 222.942 1642.23 227.124C1629.68 231.311 1614.86 233.403 1597.76 233.4H1542.18V328.968H1488.93V65.3926ZM1260.25 142.134H1311.36V164.547C1314.51 160.197 1318.25 156.305 1322.47 152.982C1326.94 149.476 1331.82 146.526 1337 144.196C1342.7 141.645 1348.69 139.779 1354.84 138.638C1361.66 137.354 1368.6 136.724 1375.55 136.755C1386.36 136.6 1397.12 138.423 1407.28 142.134C1416.34 145.47 1424.54 150.766 1431.31 157.644C1438.11 164.772 1443.25 173.312 1446.37 182.657C1449.97 193.402 1451.73 204.677 1451.57 216.007V328.968H1400.47V229.276C1400.59 221.988 1399.56 214.726 1397.42 207.759C1395.65 202.007 1392.69 196.692 1388.73 192.16C1384.92 187.949 1380.15 184.72 1374.83 182.746C1368.8 180.564 1362.42 179.501 1356 179.609C1349.56 179.507 1343.15 180.57 1337.09 182.746C1331.73 184.703 1326.93 187.934 1323.1 192.16C1319.14 196.692 1316.18 202.007 1314.4 207.759C1312.26 214.726 1311.23 221.988 1311.36 229.276V328.968H1260.25V142.134ZM1134.51 288.894C1139.38 287.715 1144.11 285.969 1148.58 283.694C1152.84 281.518 1156.74 278.706 1160.15 275.356C1163.52 272.05 1166.45 268.312 1168.84 264.239C1171.28 260.045 1173.1 255.514 1174.22 250.791C1175.44 245.682 1176.04 240.445 1176.01 235.192C1176.05 229.969 1175.44 224.761 1174.22 219.682C1171.96 210.323 1167.08 201.801 1160.15 195.118C1156.69 191.797 1152.8 188.962 1148.58 186.691C1144.14 184.311 1139.41 182.532 1134.51 181.401C1129.18 180.179 1123.74 179.578 1118.28 179.608C1112.88 179.584 1107.49 180.186 1102.23 181.401C1097.35 182.521 1092.64 184.301 1088.24 186.691C1084.06 188.977 1080.2 191.811 1076.77 195.118C1073.39 198.374 1070.52 202.122 1068.25 206.235C1065.94 210.46 1064.13 214.944 1062.87 219.593C1061.52 224.681 1060.86 229.928 1060.9 235.193C1060.87 240.456 1061.53 245.701 1062.87 250.792C1064.1 255.481 1065.91 259.998 1068.25 264.24C1070.54 268.334 1073.41 272.078 1076.77 275.356C1080.16 278.692 1084.03 281.502 1088.24 283.694C1092.68 285.98 1097.38 287.726 1102.23 288.894C1107.48 290.17 1112.87 290.802 1118.28 290.777C1123.74 290.809 1129.19 290.176 1134.51 288.894ZM1088.15 330.94C1078.93 328.794 1070 325.575 1061.53 321.347C1053.56 317.376 1046.17 312.339 1039.56 306.376C1033.16 300.581 1027.61 293.911 1023.07 286.563C1018.47 279.083 1014.94 270.995 1012.58 262.536C1007.68 244.637 1007.68 225.749 1012.58 207.849C1014.93 199.415 1018.46 191.356 1023.07 183.912C1027.64 176.587 1033.19 169.921 1039.56 164.099C1046.15 158.089 1053.55 153.02 1061.53 149.038C1070 144.812 1078.94 141.593 1088.15 139.445C1108.1 134.903 1128.81 134.903 1148.76 139.445C1157.93 141.574 1166.81 144.794 1175.21 149.038C1183.15 153.079 1190.54 158.143 1197.17 164.099C1203.64 169.9 1209.29 176.567 1213.94 183.912C1218.6 191.34 1222.16 199.402 1224.51 207.849C1229.42 225.749 1229.42 244.637 1224.51 262.536C1222.15 271.008 1218.59 279.098 1213.94 286.563C1209.32 293.932 1203.67 300.603 1197.17 306.376C1190.52 312.285 1183.14 317.317 1175.21 321.347C1166.83 325.584 1157.99 328.804 1148.85 330.94C1128.87 335.482 1108.13 335.482 1088.15 330.94ZM888.75 288.894C893.628 287.715 898.352 285.97 902.825 283.694C907.081 281.518 910.981 278.706 914.39 275.356C917.766 272.05 920.69 268.312 923.086 264.239C925.531 260.046 927.343 255.514 928.465 250.791C929.685 245.682 930.287 240.445 930.258 235.192C930.29 229.969 929.688 224.761 928.465 219.682C926.205 210.322 921.322 201.801 914.39 195.118C910.936 191.797 907.045 188.962 902.825 186.691C898.389 184.31 893.656 182.531 888.75 181.401C883.428 180.179 877.983 179.578 872.523 179.608C867.122 179.584 861.737 180.186 856.475 181.401C851.595 182.521 846.89 184.301 842.489 186.691C838.307 188.978 834.448 191.812 831.014 195.118C827.632 198.374 824.761 202.122 822.497 206.235C820.186 210.461 818.381 214.944 817.118 219.593C815.764 224.68 815.1 229.927 815.146 235.192C815.115 240.456 815.778 245.701 817.118 250.791C818.347 255.48 820.154 259.997 822.497 264.239C824.789 268.333 827.658 272.077 831.014 275.356C834.403 278.691 838.271 281.501 842.489 283.694C846.927 285.979 851.622 287.725 856.475 288.894C861.728 290.169 867.117 290.802 872.523 290.776C877.988 290.808 883.437 290.176 888.75 288.894ZM842.4 330.94C833.18 328.795 824.243 325.576 815.773 321.348C807.807 317.376 800.418 312.34 793.809 306.377C787.405 300.582 781.851 293.912 777.313 286.564C772.713 279.084 769.182 270.996 766.824 262.537C761.923 244.638 761.923 225.75 766.824 207.85C769.172 199.416 772.704 191.357 777.313 183.913C781.884 176.589 787.434 169.923 793.809 164.1C800.4 158.09 807.792 153.021 815.773 149.039C824.244 144.813 833.18 141.594 842.4 139.446C862.346 134.904 883.058 134.904 903.004 139.446C912.172 141.574 921.051 144.795 929.451 149.039C937.399 153.079 944.783 158.143 951.416 164.1C957.891 169.901 963.532 176.568 968.181 183.913C972.843 191.34 976.406 199.403 978.76 207.85C983.661 225.75 983.661 244.638 978.76 262.537C976.396 271.009 972.834 279.1 968.181 286.564C963.565 293.933 957.92 300.605 951.416 306.377C944.766 312.287 937.384 317.318 929.451 321.348C921.079 325.584 912.231 328.804 903.094 330.94C883.117 335.482 862.376 335.482 842.4 330.94ZM439.073 65.3926H492.864L584.847 205.966L677.188 65.3926H730.979V328.968H677.726V148.231L601.343 264.778H568.709L492.326 148.231V328.968H439.073V65.3926Z" fill="white"/>
<path d="M316.259 112.582C326.898 112.582 337.298 109.427 346.144 103.516C354.989 97.6058 361.884 89.2048 365.955 79.3758C370.027 69.5468 371.092 58.7313 369.016 48.2968C366.941 37.8624 361.818 28.2778 354.295 20.755C346.772 13.2322 337.187 8.10913 326.753 6.0336C316.319 3.95807 305.503 5.02331 295.674 9.09461C285.845 13.1659 277.444 20.0604 271.534 28.9063C265.623 37.7522 262.468 48.1521 262.468 58.7909C262.468 65.855 263.859 72.8499 266.562 79.3763C269.265 85.9028 273.227 91.8328 278.222 96.8278C283.217 101.823 289.147 105.785 295.674 108.488C302.2 111.191 309.195 112.582 316.259 112.582ZM151.323 354.842C125.39 354.842 100.041 347.153 78.4787 332.745C56.9169 318.338 40.1115 297.861 30.1876 273.903C20.2638 249.944 17.6673 223.581 22.7265 198.148C27.7856 172.714 40.2732 149.351 58.61 131.014C76.9469 112.677 100.309 100.19 125.743 95.1309C151.177 90.0718 177.54 92.6684 201.498 102.592C225.457 112.516 245.934 129.322 260.341 150.883C274.748 172.445 282.438 197.795 282.438 223.727C282.438 240.946 279.047 257.996 272.458 273.904C265.869 289.811 256.211 304.266 244.036 316.441C231.861 328.616 217.407 338.274 201.499 344.863C185.591 351.452 168.541 354.843 151.323 354.842Z" fill="white"/>
</svg>
