<svg width="635" height="115" viewBox="0 0 635 115" fill="none" xmlns="http://www.w3.org/2000/svg">
<path d="M197.254 92.3372C192.669 92.3372 188.371 90.5224 186.365 86.4152L166.784 45.8204C166.593 45.3429 166.02 45.0563 165.542 45.0563C164.778 45.0563 164.014 45.6294 164.014 46.7756V91H147.394V43.7191C147.394 36.4598 149.591 31.9705 153.411 28.9139C156.277 26.6215 160.098 24.9977 164.682 24.9977C172.897 24.9977 177.673 29.8691 181.016 37.0329L195.63 68.7445C196.012 69.6997 196.49 69.9863 197.254 69.9863C198.018 69.9863 198.495 69.6997 198.877 68.7445L213.492 37.0329C216.835 29.8691 221.611 24.9977 229.825 24.9977C234.41 24.9977 238.23 26.6215 241.096 28.9139C244.917 31.9705 247.114 36.4598 247.114 43.7191V91H230.494V46.7756C230.494 45.6294 229.729 45.0563 228.965 45.0563C228.488 45.0563 227.915 45.3429 227.724 45.8204L208.143 86.4152C206.137 90.5224 201.838 92.3372 197.254 92.3372ZM304.777 91H291.213C279.656 91 271.155 86.9883 265.233 80.4931C260.075 74.8576 256.923 67.2163 256.923 58.7152C256.923 49.3546 260.934 40.8536 267.334 34.9315C273.065 29.6781 280.802 26.4305 291.213 26.4305H304.777C315.188 26.4305 322.925 29.6781 328.656 34.9315C335.056 40.8536 339.067 49.3546 339.067 58.7152C339.067 67.2163 335.915 74.8576 330.757 80.4931C324.835 86.9883 316.334 91 304.777 91ZM304.777 43.528H291.213C285.387 43.528 281.757 45.1518 278.987 47.7308C276.026 50.5008 274.211 54.5125 274.211 58.8108C274.211 62.727 275.74 66.3566 278.223 69.0311C280.993 72.0876 285.1 73.998 291.213 73.998H304.777C310.89 73.998 314.997 72.0876 317.767 69.0311C320.251 66.3566 321.779 62.727 321.779 58.8108C321.779 54.5125 319.964 50.5008 317.003 47.7308C314.233 45.1518 310.603 43.528 304.777 43.528ZM395.675 91H382.111C370.554 91 362.053 86.9883 356.131 80.4931C350.973 74.8576 347.821 67.2163 347.821 58.7152C347.821 49.3546 351.832 40.8536 358.232 34.9315C363.963 29.6781 371.7 26.4305 382.111 26.4305H395.675C406.086 26.4305 413.823 29.6781 419.554 34.9315C425.954 40.8536 429.965 49.3546 429.965 58.7152C429.965 67.2163 426.813 74.8576 421.655 80.4931C415.733 86.9883 407.232 91 395.675 91ZM395.675 43.528H382.111C376.285 43.528 372.655 45.1518 369.885 47.7308C366.924 50.5008 365.109 54.5125 365.109 58.8108C365.109 62.727 366.637 66.3566 369.121 69.0311C371.891 72.0876 375.998 73.998 382.111 73.998H395.675C401.788 73.998 405.895 72.0876 408.665 69.0311C411.148 66.3566 412.677 62.727 412.677 58.8108C412.677 54.5125 410.862 50.5008 407.901 47.7308C405.131 45.1518 401.501 43.528 395.675 43.528ZM520.29 26.4305V78.4873C520.29 88.23 514.463 92.3372 508.159 92.3372C502.715 92.3372 498.608 90.809 495.551 87.2748L460.114 46.298C459.637 45.7249 459.159 45.4384 458.586 45.4384C457.726 45.4384 456.962 46.107 456.962 47.2532V91H439.96V40.0894C439.96 29.105 446.264 24.9977 454.956 24.9977C461.069 24.9977 464.89 26.6215 468.902 31.3974L500.422 69.1266C500.9 69.7952 501.473 69.8907 502.046 69.8907C502.81 69.8907 503.383 69.3176 503.383 68.1714V26.4305H520.29ZM531.891 26.4305H549.275V91H531.891V26.4305ZM557.984 26.4305H632.01V43.528H603.737V91H586.353V43.528H557.984V26.4305Z" fill="#F2F2F2"/>
<path d="M93.32 14.8614C93.4987 13.7506 93.6369 12.6171 93.4451 11.5085C92.3434 5.14186 85.1089 1.49363 79.2274 4.89098L3.21466 58.3683C-2.87446 61.8856 0.356472 71.2342 7.31454 70.2312L44.3999 63.0334C49.5345 62.2933 54.5273 64.7351 57.143 69.0668C57.8627 70.2585 58.234 71.6177 58.554 72.9727L66.338 105.938C66.498 106.616 66.6861 107.296 67.0356 107.898C69.9796 112.968 77.888 111.468 78.8026 105.704C78.9202 104.963 78.9491 104.207 79.0682 103.467L93.32 14.8614Z" fill="#F2F2F2"/>
</svg>
