<svg width="2500" height="415" viewBox="0 0 2500 415" fill="none" xmlns="http://www.w3.org/2000/svg">
<g clip-path="url(#clip0_1_2)">
<mask id="mask0_1_2" style="mask-type:luminance" maskUnits="userSpaceOnUse" x="0" y="0" width="2500" height="416">
<path d="M2500 0.00390625H0V415.004H2500V0.00390625Z" fill="white"/>
</mask>
<g mask="url(#mask0_1_2)">
<path d="M157.074 403.443L157.722 385.15L140.836 375.477C128.187 367.944 125.71 362.02 126.509 338.89L130.756 217.328C144.158 203.339 159.55 194.198 175.151 194.198C204.2 194.198 216.884 216.252 215.507 255.523L212.602 338.89C211.792 362.02 208.887 367.944 195.717 375.477L178.16 385.15L177.523 403.443H326.019L326.656 385.15L309.782 375.477C299.228 369.552 297.295 363.096 298.14 338.89L301.635 238.849C301.866 232.393 301.553 225.936 301.195 220.556C313.601 204.415 327.941 194.198 343.541 194.198C372.602 194.198 385.911 213.568 384.452 255.523L381.536 338.89C380.726 362.02 377.833 367.944 364.118 375.477L346.562 385.15L345.926 403.443H503.02L503.668 385.15L485.73 374.933C469.365 365.792 466.368 359.335 467.074 338.89L470.581 238.849C473.034 168.384 441.126 126.96 385.17 126.96C342.662 126.96 309.169 161.927 294.517 180.753C282.758 147.938 257.657 126.96 216.236 126.96C173.195 126.96 143.996 161.927 124.842 186.665L126.567 137.177L110.237 126.96L10.3023 169.459L9.66543 187.742L26.632 194.73C41.492 200.655 45.531 208.187 44.5704 235.621L40.9713 338.89C40.2769 358.792 35.7286 365.792 19.8039 374.933L0.615382 385.15L-0.0214844 403.443H157.074Z" fill="white"/>
<path d="M647.568 408.823C727.192 408.823 794.988 346.966 797.731 268.424C800.717 182.905 744.031 126.96 657.406 126.96C577.238 126.96 509.419 189.361 506.699 267.348C503.714 352.879 560.943 408.823 647.568 408.823ZM648.749 374.933C615.395 374.933 597.41 335.129 599.782 267.348C602.143 199.578 622.871 160.851 656.225 160.851C689.047 160.851 707.02 200.654 704.659 268.424C702.287 336.206 681.57 374.933 648.749 374.933Z" fill="white"/>
<path d="M950.462 408.823C1030.1 408.823 1097.89 346.966 1100.64 268.424C1103.62 182.905 1046.94 126.96 960.311 126.96C880.143 126.96 812.324 189.361 809.605 267.348C806.619 352.879 863.848 408.823 950.462 408.823ZM951.654 374.933C918.288 374.933 900.315 335.129 902.688 267.348C905.049 199.578 925.765 160.851 959.13 160.851C991.952 160.851 1009.93 200.654 1007.55 268.424C1005.19 336.206 984.476 374.933 951.654 374.933Z" fill="white"/>
<path d="M1258.94 403.443L1259.58 385.15L1241.1 374.933C1227.4 366.868 1224.92 360.944 1225.69 338.89L1229.96 216.796C1242.78 203.883 1260.34 194.198 1276.47 194.198C1307.68 194.198 1323.62 215.176 1322.23 254.979L1319.3 338.89C1318.53 360.944 1315.63 366.868 1301.36 374.933L1282.18 385.15L1281.54 403.443H1441.33L1441.97 385.15L1423.5 374.933C1407.68 365.792 1404.16 358.792 1404.85 338.89L1408.36 238.305C1410.8 168.383 1378.89 126.96 1322.94 126.96C1290.66 126.96 1254.35 149.546 1224.03 186.133L1225.74 137.177L1209.41 126.96L1109.48 169.459L1108.83 187.742L1125.81 194.73C1141.19 201.187 1144.69 208.719 1143.75 235.621L1140.14 338.89C1139.44 358.792 1135.44 365.792 1118.98 374.933L1099.79 385.15L1099.16 403.443H1258.94Z" fill="white"/>
<path d="M1540.67 408.823C1608.47 408.823 1658.71 372.248 1660.56 318.988C1661.76 284.565 1644.83 260.903 1591.34 236.697C1534.68 210.872 1523.16 201.73 1523.8 183.437C1524.27 169.992 1536.43 160.851 1558.49 160.851C1574.09 160.851 1588.91 167.84 1599.75 180.753C1609.05 192.046 1617.8 203.339 1624.39 214.644H1644.84L1654.77 145.786C1630.96 134.493 1593.02 126.96 1557.51 126.96C1494.57 126.96 1451.48 159.231 1449.69 210.339C1448.38 247.99 1470.59 274.348 1518.81 295.326C1573.95 318.988 1583.74 331.369 1583.24 345.346C1582.55 365.248 1567.69 374.933 1546.7 374.933C1519.8 374.933 1504.11 362.02 1484.74 331.369L1469.44 307.163H1450.08L1438.88 381.389C1466.21 399.682 1505.7 408.823 1540.67 408.823Z" fill="white"/>
<path d="M1818.48 403.443L1819.13 385.15L1800.64 374.933C1786.94 366.868 1784.45 360.944 1785.23 338.89L1789.54 215.176C1801.81 202.807 1819.88 194.198 1836.01 194.198C1867.22 194.198 1883.18 214.643 1881.83 253.37L1878.84 338.89C1878.07 360.944 1875.17 366.868 1860.9 374.933L1841.72 385.15L1841.08 403.443H2000.87L2001.51 385.15L1983.04 374.933C1967.22 365.792 1963.7 358.792 1964.39 338.89L1967.96 236.697C1970.36 167.84 1938.43 126.96 1882.48 126.96C1853.43 126.96 1820.55 144.178 1790.94 175.373L1796.68 10.7789L1780.39 0.0178223L1673.45 42.5058L1672.81 60.7992L1689.76 68.3315C1704.6 74.7879 1708.65 82.3209 1707.72 108.667L1699.68 338.89C1698.98 358.792 1694.98 365.792 1678.51 374.933L1659.33 385.15L1658.69 403.443H1818.48Z" fill="white"/>
<path d="M2399.35 408.824C2432.71 408.824 2468.06 398.063 2488.47 383.542L2481.91 355.564C2471.56 359.336 2460.19 361.488 2451.58 361.488C2426.29 361.488 2417.23 343.738 2419.07 291.022L2423.17 173.753H2491.49L2492.94 132.341H2424.61L2426.96 65.1036L2408.5 54.343L2347.73 130.721L2297.36 140.406L2296.2 173.753H2337.63L2332.96 307.163C2330.29 383.542 2346.63 408.824 2399.35 408.824Z" fill="white"/>
<path fill-rule="evenodd" clip-rule="evenodd" d="M2233.85 147.317C2271.84 173.926 2296.69 218.022 2296.69 267.877C2296.69 349.064 2230.78 414.978 2149.6 414.978C2101.2 414.978 2058.23 391.556 2031.42 355.439C2123.07 394.33 2234.09 365.75 2245.41 229.447C2245.45 229.033 2257.69 231.139 2264.69 232.372C2265.65 232.541 2266.62 232.172 2267.23 231.41C2267.83 230.648 2267.97 229.616 2267.59 228.723C2261.07 212.949 2239.36 160.448 2233.85 147.317Z" fill="white"/>
<path fill-rule="evenodd" clip-rule="evenodd" d="M2002.51 269.541C2002.5 268.987 2002.5 268.432 2002.5 267.877C2002.5 186.69 2068.41 120.777 2149.6 120.777C2179.9 120.777 2208.08 129.963 2231.5 145.7C2224.58 154.556 2186.56 203.225 2175.8 216.995C2175.22 217.742 2175.07 218.744 2175.43 219.623C2175.79 220.502 2176.58 221.124 2177.52 221.254C2184.64 222.244 2197.56 224.086 2197.53 224.406C2187.53 347.024 2055.34 346.792 2002.51 269.541Z" fill="white"/>
</g>
</g>
<defs>
<clipPath id="clip0_1_2">
<rect width="2500" height="415" fill="white"/>
</clipPath>
</defs>
</svg>
