<svg width="329" height="44" viewBox="0 0 329 44" fill="none" xmlns="http://www.w3.org/2000/svg">
<path d="M314.481 31.0694C315.95 31.2214 317.039 31.2974 317.749 31.2974C318.483 31.2974 319.585 31.196 321.055 30.9934C321.511 31.1454 321.777 31.3354 321.853 31.5634C321.929 31.7914 321.954 32.032 321.929 32.2854C321.903 32.5134 321.916 32.7414 321.967 32.9694C322.017 33.1974 322.258 33.3874 322.689 33.5394C322.917 33.6154 322.98 33.8434 322.879 34.2234C322.803 34.578 322.6 34.9707 322.271 35.4014C321.435 36.4907 320.447 37.2507 319.307 37.6814C317.483 38.1374 316.051 38.4034 315.013 38.4794C313.29 38.6061 311.415 38.5427 309.389 38.2894C307.159 37.884 306.083 36.9594 306.159 35.5154C306.159 30.1954 307.324 24.85 309.655 19.4794C310.415 17.7314 311.276 15.8947 312.239 13.9694C312.441 13.564 312.555 13.108 312.581 12.6014C312.631 12.0947 312.669 11.6007 312.695 11.1194C312.72 10.638 312.796 10.2074 312.923 9.82738C313.049 9.44738 313.315 9.18138 313.721 9.02938C318.99 6.92671 323.157 6.11605 326.223 6.59738C327.287 6.62271 327.983 6.99005 328.313 7.69938C328.667 8.38338 328.705 9.15605 328.427 10.0174C328.173 10.8787 327.654 11.6894 326.869 12.4494C326.109 13.2094 325.146 13.678 323.981 13.8554C322.486 14.286 321.574 14.5774 321.245 14.7294C320.611 15.0334 320.155 15.4387 319.877 15.9454C319.522 16.5027 319.193 17.0347 318.889 17.5414C318.585 18.048 318.369 18.5927 318.243 19.1754L318.091 20.0114C318.572 20.2394 319.155 20.3154 319.839 20.2394C320.548 20.138 321.194 20.0494 321.777 19.9734C322.385 19.872 322.866 19.8594 323.221 19.9354C323.601 20.0114 323.677 20.3914 323.449 21.0754C323.246 21.734 322.853 22.4814 322.271 23.3174C321.713 24.1534 320.915 24.7614 319.877 25.1414C319.218 25.268 318.762 25.3694 318.509 25.4454C318.281 25.496 318.103 25.534 317.977 25.5594C317.799 25.5847 317.293 25.6227 316.457 25.6734C315.266 27.7 314.544 29.2707 314.291 30.3854C314.189 30.8414 314.253 31.0694 314.481 31.0694Z" fill="white"/>
<path d="M296.709 7.16737C300.357 6.4327 303.194 6.8887 305.221 8.53537C306.183 9.32071 306.817 10.4607 307.121 11.9554C307.45 13.45 307.285 15.122 306.627 16.9714C306.348 17.8327 305.867 18.4787 305.183 18.9094C304.499 19.34 303.789 19.5934 303.055 19.6694C302.345 19.72 301.699 19.6314 301.117 19.4034C300.534 19.15 300.217 18.7954 300.167 18.3394L299.825 17.5794C299.217 16.6674 298.165 16.5534 296.671 17.2374C295.379 17.82 294.087 18.8334 292.795 20.2774C291.427 21.8227 290.54 23.216 290.135 24.4574C289.679 25.8254 289.451 26.7247 289.451 27.1554C289.4 28.118 289.742 28.9794 290.477 29.7394C291.541 30.4234 292.605 30.74 293.669 30.6894C294.733 30.6134 295.683 30.3727 296.519 29.9674C297.355 29.5367 298.039 29.0554 298.571 28.5234C299.103 27.9914 299.369 27.6114 299.369 27.3834C299.445 27.2314 299.521 27.0794 299.597 26.9274C299.673 26.7754 299.736 26.6234 299.787 26.4714C299.685 26.4714 299.711 26.4714 299.863 26.4714C300.015 26.446 300.053 26.446 299.977 26.4714C299.901 26.4714 299.939 26.484 300.091 26.5094L300.319 26.5854C299.077 27.7 297.874 27.928 296.709 27.2694C296.253 26.9907 295.847 26.6994 295.493 26.3954C295.138 26.066 294.809 25.914 294.505 25.9394C293.947 25.6354 293.821 25.04 294.125 24.1534C294.251 23.7987 294.479 23.4694 294.809 23.1654C295.163 22.836 295.607 22.608 296.139 22.4814C298.672 21.392 301.015 21.1387 303.169 21.7214C304.131 21.9747 304.79 22.494 305.145 23.2794C305.525 24.0394 305.689 24.9007 305.639 25.8634C305.588 26.826 305.373 27.8014 304.993 28.7894C304.638 29.7774 304.245 30.5754 303.815 31.1834C303.384 31.766 302.776 32.4627 301.991 33.2734C301.231 34.084 300.268 34.8694 299.103 35.6294C296.24 37.4787 293.175 38.3654 289.907 38.2894C285.169 38.2134 282.37 36.2754 281.509 32.4754C281.23 31.2594 281.103 29.8914 281.129 28.3714C281.382 23.9634 282.699 19.8467 285.081 16.0214C286.221 14.1974 287.753 12.3987 289.679 10.6254C290.895 9.53604 292.263 8.70004 293.783 8.11737C294.593 7.78804 295.569 7.47137 296.709 7.16737Z" fill="white"/>
<path d="M281.188 10.0933C282.049 10.5493 282.594 11.2206 282.822 12.1073C282.315 14.9446 281.859 17.7693 281.454 20.5813C281.049 23.368 280.656 25.7113 280.276 27.6113C279.896 29.486 279.63 30.892 279.478 31.8293C279.351 32.7666 279.199 33.704 279.022 34.6413L278.794 35.4393C278.743 35.718 278.693 35.9713 278.642 36.1993C278.591 36.4526 278.541 36.7186 278.49 36.9973C277.781 37.808 276.818 38.2133 275.602 38.2133C274.31 38.2133 273.284 37.884 272.524 37.2253C272.068 36.8706 271.992 36.1233 272.296 34.9833C272.423 34.5273 272.499 33.9446 272.524 33.2353C272.575 32.5006 272.625 31.8926 272.676 31.4113V31.3353C271.916 31.614 271.232 31.9813 270.624 32.4373C270.016 32.868 269.636 33.1466 269.484 33.2733C269.332 33.3746 269.129 33.4633 268.876 33.5393C268.623 33.59 268.395 33.628 268.192 33.6533C267.711 33.6786 267.381 33.7546 267.204 33.8813C265.735 36.516 264.417 37.9853 263.252 38.2893C262.517 38.5173 261.783 38.568 261.048 38.4413C260.313 38.34 259.731 37.9093 259.3 37.1493C258.489 36.3893 258.692 34.312 259.908 30.9173C260.567 29.1186 261.504 26.9653 262.72 24.4573C263.961 21.924 265.152 19.72 266.292 17.8453C268.749 13.8173 271.447 10.4226 274.386 7.6613C274.867 7.45863 275.387 7.23063 275.944 6.9773C276.501 6.69863 277.046 6.54663 277.578 6.5213C278.135 6.49596 278.705 6.5593 279.288 6.7113C279.871 6.8633 280.365 7.0913 280.77 7.3953C281.707 8.10463 281.847 9.00396 281.188 10.0933ZM273.056 20.0873C272.524 21.6073 271.992 23.0133 271.46 24.3053C270.928 25.572 270.472 26.6866 270.092 27.6493L273.094 27.5353C273.297 25.914 273.525 24.3053 273.778 22.7093C274.031 21.1133 274.272 19.5173 274.5 17.9213L273.056 20.0873ZM272.03 27.6873C272.385 27.6873 272.739 27.662 273.094 27.6113V27.5733C272.765 27.5986 272.461 27.624 272.182 27.6493C271.903 27.6746 271.853 27.6873 272.03 27.6873Z" fill="white"/>
<path d="M245.515 38.0614C244.223 38.112 243.032 37.9474 241.943 37.5674C240.879 37.2127 240.005 36.7187 239.321 36.0854C238.662 35.4521 238.244 34.7174 238.067 33.8814C237.889 33.02 238.041 32.1461 238.523 31.2594C239.181 30.1954 240.499 29.8787 242.475 30.3094C243.969 30.6134 244.995 30.778 245.553 30.8034C246.135 30.8287 246.629 30.7527 247.035 30.5754C248.884 29.9674 249.923 29.3087 250.151 28.5994C250.303 28.0674 249.973 27.4467 249.163 26.7374C248.833 26.4334 248.466 26.1294 248.061 25.8254C247.655 25.5214 247.313 25.2174 247.035 24.9134C245.768 23.976 244.767 22.8994 244.033 21.6834C243.323 20.442 243.032 19.0994 243.159 17.6554C243.285 16.2114 243.526 15.0207 243.881 14.0834C244.235 13.1207 244.679 12.2721 245.211 11.5374C246.148 10.2454 247.364 9.19405 248.859 8.38338C250.581 7.49672 251.962 6.92672 253.001 6.67338C255.053 6.21738 257.13 6.17938 259.233 6.55938C259.942 6.68605 260.55 6.92672 261.057 7.28138C261.563 7.63605 262.07 8.00338 262.577 8.38338C263.463 9.27005 263.679 10.1694 263.223 11.0814C263.045 11.4867 262.767 11.816 262.387 12.0694C262.007 12.3227 261.601 12.462 261.171 12.4874C261.221 13.1714 261.095 13.6781 260.791 14.0074C260.208 14.59 259.195 14.97 257.751 15.1474C255.673 14.9954 254.267 15.1094 253.533 15.4894C252.671 15.9454 252.355 16.9334 252.583 18.4534C252.633 18.7827 252.836 19.1247 253.191 19.4794C253.571 19.8341 254.001 20.2141 254.483 20.6194C254.989 21.0247 255.509 21.4807 256.041 21.9874C256.598 22.494 257.079 23.0767 257.485 23.7354C258.903 26.0661 258.789 28.7894 257.143 31.9054C255.927 34.2361 253.849 35.9841 250.911 37.1494C249.391 37.7574 247.592 38.0614 245.515 38.0614Z" fill="white"/>
<path d="M226.227 8.34543V8.42143C226.227 8.44676 226.227 8.45943 226.227 8.45943C226.252 8.45943 226.265 8.47209 226.265 8.49743V8.57343H226.303L226.531 9.18143C226.784 9.91609 226.126 12.1961 224.555 16.0214C222.883 20.1001 222.11 23.2794 222.237 25.5594C222.516 27.1808 223.871 25.8761 226.303 21.6454C228.228 18.3521 230.09 14.7421 231.889 10.8154C232.117 10.2834 232.358 9.73876 232.611 9.18143C232.864 8.59876 233.181 8.11743 233.561 7.73743C234.397 6.82543 235.41 6.58476 236.601 7.01543C237.006 6.53409 237.475 6.20476 238.007 6.02743C238.564 5.85009 239.084 5.81209 239.565 5.91343C240.072 6.01476 240.502 6.25543 240.857 6.63543C241.212 6.99009 241.402 7.47143 241.427 8.07943C241.503 8.58609 241.237 9.78943 240.629 11.6894C240.046 13.5894 239.502 15.3248 238.995 16.8954C238.488 18.4661 237.969 20.1761 237.437 22.0254C236.145 26.4081 235.119 30.5374 234.359 34.4134C234.334 35.2241 233.979 35.8954 233.295 36.4274C232.636 36.9594 231.889 37.3014 231.053 37.4534C230.242 37.6308 229.47 37.6054 228.735 37.3774C227.848 37.1241 227.38 36.4908 227.329 35.4774C227.329 35.1988 227.316 34.9201 227.291 34.6414C227.342 35.5028 226.721 36.2374 225.429 36.8454C225.074 37.0228 224.745 37.1874 224.441 37.3394C222.668 37.8714 220.806 37.7574 218.855 36.9974C217.943 36.6174 217.12 36.1108 216.385 35.4774C215.676 34.8188 215.182 34.0461 214.903 33.1594C214.016 30.3221 214.181 26.5981 215.397 21.9874C215.904 20.0114 216.524 18.0861 217.259 16.2114C217.994 14.3368 218.526 12.9814 218.855 12.1454C219.21 11.3094 219.463 10.7394 219.615 10.4354C219.767 10.1061 219.932 9.78943 220.109 9.48543C220.54 8.62409 220.907 8.04143 221.211 7.73743L221.667 7.31943C221.718 7.26876 221.768 7.24343 221.819 7.24343C221.87 7.21809 221.933 7.18009 222.009 7.12943C222.212 7.00276 222.427 6.91409 222.655 6.86343L223.187 6.74943H223.415C224.15 6.64809 224.783 6.80009 225.315 7.20543C225.315 7.23076 225.34 7.24343 225.391 7.24343L225.695 7.50943L225.809 7.62343L225.923 7.77543C225.923 7.80076 225.923 7.81343 225.923 7.81343C225.948 7.81343 225.961 7.82609 225.961 7.85143L225.999 7.88943V7.96543C226.024 7.96543 226.037 7.97809 226.037 8.00343V8.04143C226.062 8.06676 226.088 8.07943 226.113 8.07943V8.11743C226.113 8.14276 226.113 8.15543 226.113 8.15543C226.138 8.15543 226.151 8.16809 226.151 8.19343C226.151 8.19343 226.164 8.20609 226.189 8.23143V8.26943C226.189 8.29476 226.202 8.32009 226.227 8.34543ZM227.253 33.6534V33.5394C227.228 33.5648 227.215 33.6661 227.215 33.8434C227.215 33.7674 227.228 33.7168 227.253 33.6914V33.6534Z" fill="white"/>
<path d="M212.758 10.0933C213.619 10.5493 214.164 11.2206 214.392 12.1073C213.885 14.9446 213.429 17.7693 213.024 20.5813C212.618 23.368 212.226 25.7113 211.846 27.6113C211.466 29.486 211.2 30.892 211.048 31.8293C210.921 32.7666 210.769 33.704 210.592 34.6413L210.364 35.4393C210.313 35.718 210.262 35.9713 210.212 36.1993C210.161 36.4526 210.11 36.7186 210.06 36.9973C209.35 37.808 208.388 38.2133 207.172 38.2133C205.88 38.2133 204.854 37.884 204.094 37.2253C203.638 36.8706 203.562 36.1233 203.866 34.9833C203.992 34.5273 204.068 33.9446 204.094 33.2353C204.144 32.5006 204.195 31.8926 204.246 31.4113V31.3353C203.486 31.614 202.802 31.9813 202.194 32.4373C201.586 32.868 201.206 33.1466 201.054 33.2733C200.902 33.3746 200.699 33.4633 200.446 33.5393C200.192 33.59 199.964 33.628 199.762 33.6533C199.28 33.6786 198.951 33.7546 198.774 33.8813C197.304 36.516 195.987 37.9853 194.822 38.2893C194.087 38.5173 193.352 38.568 192.618 38.4413C191.883 38.34 191.3 37.9093 190.87 37.1493C190.059 36.3893 190.262 34.312 191.478 30.9173C192.136 29.1186 193.074 26.9653 194.29 24.4573C195.531 21.924 196.722 19.72 197.862 17.8453C200.319 13.8173 203.017 10.4226 205.956 7.6613C206.437 7.45863 206.956 7.23063 207.514 6.9773C208.071 6.69863 208.616 6.54663 209.148 6.5213C209.705 6.49596 210.275 6.5593 210.858 6.7113C211.44 6.8633 211.934 7.0913 212.34 7.3953C213.277 8.10463 213.416 9.00396 212.758 10.0933ZM204.626 20.0873C204.094 21.6073 203.562 23.0133 203.03 24.3053C202.498 25.572 202.042 26.6866 201.662 27.6493L204.664 27.5353C204.866 25.914 205.094 24.3053 205.348 22.7093C205.601 21.1133 205.842 19.5173 206.07 17.9213L204.626 20.0873ZM203.6 27.6873C203.954 27.6873 204.309 27.662 204.664 27.6113V27.5733C204.334 27.5986 204.03 27.624 203.752 27.6493C203.473 27.6746 203.422 27.6873 203.6 27.6873Z" fill="white"/>
<path d="M177.085 38.0614C175.793 38.112 174.602 37.9474 173.513 37.5674C172.449 37.2127 171.575 36.7187 170.891 36.0854C170.232 35.4521 169.814 34.7174 169.637 33.8814C169.46 33.02 169.612 32.1461 170.093 31.2594C170.752 30.1954 172.069 29.8787 174.045 30.3094C175.54 30.6134 176.566 30.778 177.123 30.8034C177.706 30.8287 178.2 30.7527 178.605 30.5754C180.454 29.9674 181.493 29.3087 181.721 28.5994C181.873 28.0674 181.544 27.4467 180.733 26.7374C180.404 26.4334 180.036 26.1294 179.631 25.8254C179.226 25.5214 178.884 25.2174 178.605 24.9134C177.338 23.976 176.338 22.8994 175.603 21.6834C174.894 20.442 174.602 19.0994 174.729 17.6554C174.856 16.2114 175.096 15.0207 175.451 14.0834C175.806 13.1207 176.249 12.2721 176.781 11.5374C177.718 10.2454 178.934 9.19405 180.429 8.38338C182.152 7.49672 183.532 6.92672 184.571 6.67338C186.623 6.21738 188.7 6.17938 190.803 6.55938C191.512 6.68605 192.12 6.92672 192.627 7.28138C193.134 7.63605 193.64 8.00338 194.147 8.38338C195.034 9.27005 195.249 10.1694 194.793 11.0814C194.616 11.4867 194.337 11.816 193.957 12.0694C193.577 12.3227 193.172 12.462 192.741 12.4874C192.792 13.1714 192.665 13.6781 192.361 14.0074C191.778 14.59 190.765 14.97 189.321 15.1474C187.244 14.9954 185.838 15.1094 185.103 15.4894C184.242 15.9454 183.925 16.9334 184.153 18.4534C184.204 18.7827 184.406 19.1247 184.761 19.4794C185.141 19.8341 185.572 20.2141 186.053 20.6194C186.56 21.0247 187.079 21.4807 187.611 21.9874C188.168 22.494 188.65 23.0767 189.055 23.7354C190.474 26.0661 190.36 28.7894 188.713 31.9054C187.497 34.2361 185.42 35.9841 182.481 37.1494C180.961 37.7574 179.162 38.0614 177.085 38.0614Z" fill="white"/>
<path d="M144.833 21.4553C144.402 17.782 144.225 14.7926 144.301 12.4873C144.25 11.398 144.694 10.3593 145.631 9.37129C146.518 8.43396 147.442 7.91462 148.405 7.81329C149.469 7.73729 150.153 8.33262 150.457 9.59929C150.66 10.3086 150.913 11.132 151.217 12.0693C151.521 13.0066 151.812 13.9946 152.091 15.0333C152.37 14.6533 152.813 13.982 153.421 13.0193C154.029 12.0566 154.599 11.1953 155.131 10.4353C156.423 8.58596 157.563 7.29396 158.551 6.55929C159.514 6.17929 160.337 6.07796 161.021 6.25529C161.73 6.40729 162.237 6.66062 162.541 7.01529C162.87 7.36996 162.997 7.88929 162.921 8.57329C162.87 10.1693 161.654 12.6773 159.273 16.0973C158.716 16.8826 158.146 17.7946 157.563 18.8333C157.006 19.872 156.347 21.0373 155.587 22.3293C154.852 23.596 154.143 24.8626 153.459 26.1293C151.888 28.992 150.66 31.7153 149.773 34.2993C149.798 34.2486 149.9 34.312 150.077 34.4893C150.254 34.6413 150.419 34.8693 150.571 35.1733C150.976 35.9333 150.938 36.5666 150.457 37.0733C149.241 38.34 147.734 39.0493 145.935 39.2013C144.288 39.328 142.87 39.024 141.679 38.2893C140.488 37.6053 140.096 36.7566 140.501 35.7433H140.387C140.944 34.2993 141.578 32.944 142.287 31.6773C142.996 30.3853 143.731 29.0553 144.491 27.6873L146.201 24.6473C145.77 24.7486 145.416 24.4446 145.137 23.7353C144.934 23.1526 144.833 22.3926 144.833 21.4553Z" fill="white"/>
<path d="M141.347 20.4294C141.246 21.5188 141.043 22.6334 140.739 23.7734C140.46 24.9134 140.042 26.0281 139.485 27.1174C138.953 28.2068 138.307 29.2581 137.547 30.2714C136.812 31.2848 135.989 32.2221 135.077 33.0834C134.165 33.9448 133.19 34.6668 132.151 35.2494C129.922 36.5668 127.768 37.0354 125.691 36.6554C125.235 37.6434 124.551 38.2641 123.639 38.5174C122.752 38.7961 121.866 38.7961 120.979 38.5174C120.118 38.2641 119.358 37.7701 118.699 37.0354C118.04 36.3008 117.711 35.3001 117.711 34.0334C117.711 32.7414 117.8 31.4241 117.977 30.0814C118.154 28.7388 118.395 27.4468 118.699 26.2054C119.18 24.1534 119.776 22.2281 120.485 20.4294C122.157 16.3508 123.107 13.4881 123.335 11.8414C123.664 9.63744 124.272 8.26944 125.159 7.73744C126.628 6.87611 128.022 6.50878 129.339 6.63544C130.656 6.76211 131.847 7.07878 132.911 7.58544C134.659 8.42144 136.546 9.82744 138.573 11.8034C140.802 13.9568 141.727 16.8321 141.347 20.4294ZM126.413 31.8294C127.705 31.1708 128.744 30.4994 129.529 29.8154C130.34 29.1061 131.1 28.4601 131.809 27.8774C132.898 26.7881 133.696 25.4961 134.203 24.0014C135.318 20.7081 134.608 18.2128 132.075 16.5154C131.695 16.2368 131.125 15.8568 130.365 15.3754C130.01 16.1861 129.744 17.0348 129.567 17.9214C129.415 18.8081 129.2 19.6694 128.921 20.5054L127.895 23.8494L127.059 27.4594C127.008 27.9661 126.932 28.4601 126.831 28.9414C126.73 29.3974 126.641 29.8788 126.565 30.3854L126.413 31.8294Z" fill="white"/>
<path d="M101.155 10.7013C102.751 8.8773 104.525 7.7373 106.475 7.2813C107.818 6.95197 109.085 7.00264 110.275 7.4333C111.213 6.4453 112.429 6.09064 113.923 6.3693C115.291 6.62264 116.457 7.3953 117.419 8.6873C117.47 8.86464 117.571 9.13064 117.723 9.4853C117.901 9.83997 118.065 10.2326 118.217 10.6633C119.332 13.2473 119.421 16.642 118.483 20.8473C117.318 26.066 115.253 30.4866 112.289 34.1093C111.377 35.224 110.351 36.1486 109.211 36.8833C107.387 38.2766 105.209 38.8973 102.675 38.7453C101.105 38.6693 99.7873 38.2766 98.7233 37.5673C94.4927 35.4646 93.112 31.082 94.5813 24.4193C95.7973 18.9473 97.9887 14.3746 101.155 10.7013ZM101.611 30.8793L101.573 31.1073L101.649 31.5253C101.801 32.3106 102.055 32.9186 102.409 33.3493C102.764 33.7546 103.055 34.008 103.283 34.1093C103.537 33.9066 103.79 33.7166 104.043 33.5393C104.297 33.362 104.525 33.1466 104.727 32.8933C106.45 30.7653 107.793 27.9786 108.755 24.5333C109.718 21.088 110.073 17.896 109.819 14.9573C108.831 16.224 107.793 17.6806 106.703 19.3273C105.614 20.974 104.753 22.38 104.119 23.5453C102.675 26.256 101.839 28.7006 101.611 30.8793Z" fill="white"/>
<path d="M91.2767 7.20545L91.4287 7.24345C92.062 7.62345 92.6067 8.05411 93.0627 8.53544C93.544 8.99145 93.9747 9.48545 94.3547 10.0174C94.76 10.5241 95.0767 11.0814 95.3047 11.6894C96.2673 14.0201 95.4313 16.6294 92.7967 19.5174C91.682 20.7334 90.428 21.7721 89.0347 22.6334C89.3893 22.8868 89.7187 23.0768 90.0227 23.2034C90.352 23.3048 90.808 23.5201 91.3907 23.8494C91.9733 24.1534 92.3533 24.7488 92.5307 25.6354C92.708 26.4968 92.6573 27.4721 92.3787 28.5614C92.1253 29.6508 91.644 30.7781 90.9347 31.9434C90.2507 33.0834 89.3513 34.1094 88.2367 35.0214C85.7033 37.1241 82.7647 38.0108 79.4207 37.6814C78.9393 37.6814 78.6353 37.6434 78.5087 37.5674C78.382 37.4914 78.2807 37.4281 78.2047 37.3774C78.1287 37.3268 77.964 37.2888 77.7107 37.2634C77.0773 37.7701 76.3553 38.0868 75.5447 38.2134C74.734 38.3401 73.9613 38.2768 73.2267 38.0234C72.5173 37.7701 71.9093 37.3394 71.4027 36.7314C70.9213 36.1234 70.6807 35.3254 70.6807 34.3374C70.7567 33.6788 70.8833 33.1594 71.0607 32.7794C70.9847 32.5514 70.9467 32.2728 70.9467 31.9434C71.808 27.3581 72.6187 23.8494 73.3787 21.4174C74.924 16.5788 76.596 12.9308 78.3947 10.4734C79.864 8.39611 81.9033 7.05344 84.5127 6.44544C87.0207 5.86278 89.2753 6.11611 91.2767 7.20545ZM79.4587 33.7294C79.7627 33.6534 80.016 33.6408 80.2187 33.6914C80.4467 33.7168 80.7127 33.7041 81.0167 33.6534C81.7513 33.5774 82.7393 33.1214 83.9807 32.2854C84.766 31.5001 85.184 30.7274 85.2347 29.9674C85.2853 29.2074 85.1713 28.7261 84.8927 28.5234C84.614 28.2954 84.234 28.1814 83.7527 28.1814C83.2967 28.1814 82.7773 28.2574 82.1947 28.4094C81.6373 28.5361 81.0927 28.6121 80.5607 28.6374V28.7134C80.434 29.2201 80.3073 29.6634 80.1807 30.0434C80.054 30.4234 79.94 30.7908 79.8387 31.1454C79.6107 31.9814 79.4333 32.8428 79.3067 33.7294H79.4587ZM86.5267 13.9694C85.7667 13.8681 84.9433 14.4634 84.0567 15.7554C83.4993 16.5661 83.0687 17.7948 82.7647 19.4414C83.2967 19.2134 83.816 19.0234 84.3227 18.8714C84.8547 18.6941 85.3487 18.5041 85.8047 18.3014C86.9193 17.8201 87.7173 17.2374 88.1987 16.5534C88.756 15.8948 88.9333 15.3374 88.7307 14.8814C88.4267 14.4761 87.9327 14.1088 87.2487 13.7794C87.046 13.9568 86.8053 14.0201 86.5267 13.9694ZM85.9567 13.8174H86.0707H85.9567Z" fill="white"/>
<path d="M54.6573 10.7013C56.2533 8.8773 58.0266 7.7373 59.9773 7.2813C61.3199 6.95197 62.5866 7.00264 63.7773 7.4333C64.7146 6.4453 65.9306 6.09064 67.4253 6.3693C68.7933 6.62264 69.9586 7.3953 70.9213 8.6873C70.972 8.86464 71.0733 9.13064 71.2253 9.4853C71.4026 9.83997 71.5673 10.2326 71.7193 10.6633C72.8339 13.2473 72.9226 16.642 71.9853 20.8473C70.8199 26.066 68.7553 30.4866 65.7913 34.1093C64.8793 35.224 63.8533 36.1486 62.7133 36.8833C60.8893 38.2766 58.7106 38.8973 56.1773 38.7453C54.6066 38.6693 53.2893 38.2766 52.2253 37.5673C47.9946 35.4646 46.6139 31.082 48.0833 24.4193C49.2993 18.9473 51.4906 14.3746 54.6573 10.7013ZM55.1133 30.8793L55.0753 31.1073L55.1513 31.5253C55.3033 32.3106 55.5566 32.9186 55.9113 33.3493C56.2659 33.7546 56.5573 34.008 56.7853 34.1093C57.0386 33.9066 57.2919 33.7166 57.5453 33.5393C57.7986 33.362 58.0266 33.1466 58.2293 32.8933C59.9519 30.7653 61.2946 27.9786 62.2573 24.5333C63.2199 21.088 63.5746 17.896 63.3213 14.9573C62.3333 16.224 61.2946 17.6806 60.2053 19.3273C59.1159 20.974 58.2546 22.38 57.6213 23.5453C56.1773 26.256 55.3413 28.7006 55.1133 30.8793Z" fill="white"/>
<path d="M25.5916 21.1135C26.0983 19.4161 26.5036 18.1115 26.8076 17.1995C27.1369 16.2621 27.4536 15.4261 27.7576 14.6915C28.0616 13.9568 28.4036 13.2475 28.7836 12.5635C29.1889 11.8795 29.6196 11.2588 30.0756 10.7015C30.5569 10.1188 31.0636 9.6628 31.5956 9.33346C32.1276 9.00413 32.6849 8.83946 33.2676 8.83946C33.8503 8.83946 34.4583 9.06746 35.0916 9.52346C36.1049 12.0568 36.7256 13.7541 36.9536 14.6155C37.2576 15.8821 37.5363 17.6681 37.7896 19.9735C38.0176 19.3908 38.2709 18.7828 38.5496 18.1495C38.8536 17.4908 39.1449 16.8321 39.4236 16.1735C40.2089 14.5015 40.7029 13.2348 40.9056 12.3735C41.4629 10.6001 42.6156 9.27013 44.3636 8.38346C45.8836 7.62346 47.3023 7.3828 48.6196 7.66146C49.1516 7.7628 49.5189 7.97813 49.7216 8.30746C49.9496 8.6368 49.9496 8.9788 49.7216 9.33346C49.5189 9.68813 49.4429 10.0301 49.4936 10.3595C49.5696 10.6635 49.6329 11.0308 49.6836 11.4615C49.7596 12.6268 49.5569 13.6655 49.0756 14.5775C48.5943 15.4641 48.1003 16.5788 47.5936 17.9215C47.0869 19.2388 46.5676 20.6448 46.0356 22.1395C45.5289 23.6341 45.0096 25.1541 44.4776 26.6995C43.9456 28.2448 43.4263 29.6508 42.9196 30.9175C41.8049 33.8308 40.8929 35.4395 40.1836 35.7435C39.2209 36.3261 38.5116 36.6681 38.0556 36.7695C37.4729 36.8708 36.6496 36.8708 35.5856 36.7695C34.9269 36.7188 34.3569 35.8701 33.8756 34.2235C33.5969 33.3368 33.3436 32.1081 33.1156 30.5375C32.7103 27.8015 32.4316 26.2941 32.2796 26.0155C31.2663 29.3088 30.5443 31.3861 30.1136 32.2475C29.7083 33.1088 29.3916 33.6788 29.1636 33.9575C28.9609 34.2361 28.7076 34.6035 28.4036 35.0595C28.0743 35.9715 27.2889 36.6428 26.0476 37.0735C24.9836 37.4788 24.0209 37.5421 23.1596 37.2635C22.2223 36.9595 21.9436 36.3768 22.3236 35.5155C22.6023 32.4755 23.6916 27.6748 25.5916 21.1135Z" fill="white"/>
<path d="M14.1604 3.13936C14.7938 2.15136 15.9591 1.45469 17.6564 1.04936C19.4298 0.644028 20.8864 0.644028 22.0264 1.04936C22.6091 1.27736 23.0398 1.61936 23.3184 2.07536C23.5971 2.50603 23.6098 3.06336 23.3564 3.74736C23.1791 3.9247 23.0271 4.15269 22.9004 4.43136C22.7991 4.6847 22.6724 4.96336 22.5204 5.26736C22.1404 6.10336 21.7478 6.71136 21.3424 7.09136C22.5838 7.24336 23.5211 7.53469 24.1544 7.96536C24.7878 8.39603 25.3704 8.80136 25.9024 9.18136C26.3838 9.63736 26.6118 9.97936 26.5864 10.2074C26.5864 10.41 26.4471 10.6127 26.1684 10.8154C25.9151 11.018 25.5984 11.2714 25.2184 11.5754C24.8638 11.854 24.5851 12.2847 24.3824 12.8674C24.5344 13.678 24.5344 14.286 24.3824 14.6914C24.0531 15.6034 23.2551 16.1734 21.9884 16.4014C21.1524 16.528 20.1011 16.604 18.8344 16.6294C17.5931 16.6547 16.6811 16.6927 16.0984 16.7434C15.5411 16.7687 15.0598 16.8574 14.6544 17.0094C13.7424 17.3134 13.3624 17.9087 13.5144 18.7954C13.5651 19.0994 13.8058 19.416 14.2364 19.7454C14.6924 20.0747 15.2244 20.442 15.8324 20.8474C16.4404 21.2527 17.0738 21.696 17.7324 22.1774C18.3911 22.6587 18.9738 23.216 19.4804 23.8494C20.6458 25.268 21.0258 26.826 20.6204 28.5234C20.0378 30.854 18.5938 32.8554 16.2884 34.5274C15.4524 35.1354 14.4771 35.642 13.3624 36.0474C13.2864 36.174 13.1978 36.2754 13.0964 36.3514C13.0204 36.4527 12.9571 36.5667 12.9064 36.6934L12.6024 37.1494C12.3491 37.6054 12.1084 38.074 11.8804 38.5554C11.6524 39.0367 11.3738 39.518 11.0444 39.9994C10.9938 40.0247 10.9684 40.0247 10.9684 39.9994C10.8671 40.658 10.5884 41.2534 10.1324 41.7854C9.70176 42.3427 9.20776 42.748 8.65043 43.0014C8.0931 43.2547 7.5231 43.318 6.94043 43.1914C6.35776 43.0647 5.87643 42.672 5.49643 42.0134H5.45843V36.9214C3.27976 36.6427 1.72176 35.718 0.784429 34.1474C0.353762 33.4634 0.100429 32.7414 0.0244286 31.9814C-0.0515714 31.196 0.0497619 30.474 0.328429 29.8154C0.759095 29.2074 1.3291 28.8274 2.03843 28.6754C2.7731 28.498 3.54576 28.4094 4.35643 28.4094C5.1671 28.4094 5.97776 28.422 6.78843 28.4474C7.5991 28.4727 8.30843 28.384 8.91643 28.1814C10.8164 27.7254 11.9184 27.396 12.2224 27.1934C12.5264 26.9654 12.6151 26.8007 12.4884 26.6994C12.3618 26.598 12.1591 26.4967 11.8804 26.3954C11.6018 26.294 11.2851 26.18 10.9304 26.0534C10.5758 25.9267 10.2464 25.762 9.94243 25.5594C7.1811 24.2167 5.3571 22.228 4.47043 19.5934C4.1411 18.6054 4.0271 17.5414 4.12843 16.4014C4.2551 15.236 4.50843 14.2354 4.88843 13.3994C5.29376 12.538 5.7751 11.7907 6.33243 11.1574C7.5231 9.71336 9.37243 8.54803 11.8804 7.66136C12.4631 7.45869 13.0204 7.29403 13.5524 7.16736C13.6031 6.35669 13.6284 5.78669 13.6284 5.45736C13.6284 5.12803 13.6284 4.88736 13.6284 4.73536C13.6538 4.55803 13.7044 4.3807 13.7804 4.20336C13.8564 4.02603 13.9831 3.67136 14.1604 3.13936Z" fill="white"/>
</svg>
