<svg width="2837" height="641" viewBox="0 0 2837 641" fill="none" xmlns="http://www.w3.org/2000/svg">
<path d="M694.215 1.91888C688.273 -0.639628 681.2 -0.639628 675.259 1.91888L223.435 201.198C219.474 202.904 216.079 205.747 213.533 209.443L132.9 325.997C124.413 338.221 129.222 355.278 142.803 361.247L178.733 377.167C184.675 379.726 191.748 379.726 197.689 377.167L658.85 173.908C662.81 172.202 666.205 169.359 668.752 165.663L744.857 55.3633C753.345 43.1393 748.535 26.0826 734.955 20.1127L694.215 2.20309V1.91888Z" fill="white"/>
<path d="M55.0698 639.081C61.0332 641.64 68.1324 641.64 74.0957 639.081L527.593 439.802C531.569 438.096 534.976 435.253 537.532 431.557L618.463 315.003C626.982 302.779 622.155 285.722 608.524 279.753L572.46 263.833C566.497 261.274 559.398 261.274 553.434 263.833L90.5659 467.092C86.5903 468.798 83.1827 471.641 80.627 475.336L4.2395 585.637C-4.27955 597.861 0.547912 614.917 14.1784 620.887L55.0698 638.797V639.081Z" fill="white"/>
<path d="M2783.95 155.943C2783.95 153.39 2781.96 151.121 2779.12 151.121H2723.8C2721.25 151.121 2718.98 153.39 2718.98 155.943V208.988C2718.98 211.541 2716.99 213.81 2714.16 213.81H2681.82C2679.26 213.81 2676.99 215.796 2676.99 218.633V258.062C2676.99 260.615 2678.98 262.884 2681.82 262.884H2714.16C2716.71 262.884 2718.98 264.87 2718.98 267.706V391.383C2718.98 420.317 2723.8 436.485 2735.15 445.846C2746.5 455.207 2765.22 458.327 2794.44 458.327H2832.18C2834.73 458.327 2837 456.342 2837 453.505V409.821C2837 407.268 2835.01 404.999 2832.18 404.999H2817.14C2811.18 404.999 2806.08 404.715 2801.82 403.864C2797.57 403.013 2793.88 401.595 2791.04 399.042C2785.37 393.936 2783.66 385.71 2783.66 373.512V267.423C2783.66 264.87 2785.65 262.6 2788.49 262.6H2832.18C2834.73 262.6 2837 260.615 2837 257.778V218.349C2837 215.796 2835.01 213.527 2832.18 213.527H2788.49C2785.93 213.527 2783.66 211.541 2783.66 208.704V155.943H2783.95Z" fill="white"/>
<path d="M2635.29 238.489C2612.03 217.498 2580.53 207.57 2547.63 207.57C2514.72 207.57 2483.51 217.498 2460.25 238.489C2436.98 259.48 2421.66 291.25 2421.66 335.785C2421.66 380.32 2436.98 412.658 2460.25 433.365C2483.51 454.356 2515 464.284 2547.63 464.284C2580.25 464.284 2612.03 454.356 2635.29 433.365C2658.55 412.374 2673.59 380.32 2673.59 335.785C2673.59 291.25 2658.55 259.48 2635.29 238.489ZM2589.61 395.922C2578.55 408.687 2563.51 413.793 2547.34 413.793C2531.17 413.793 2516.42 408.687 2505.64 395.922C2494.86 383.441 2488.33 363.584 2488.33 335.785C2488.33 307.986 2494.86 288.414 2505.64 275.932C2516.42 263.451 2531.45 258.062 2547.34 258.062C2563.23 258.062 2578.55 263.168 2589.61 275.932C2600.68 288.414 2607.2 307.986 2607.2 335.785C2607.2 363.584 2600.68 383.441 2589.61 395.922Z" fill="white"/>
<path d="M2313.57 207.57C2276.41 207.57 2250.31 228.277 2239.24 246.432C2237.83 248.701 2234.42 247.85 2234.42 245.013V111.975C2234.42 109.423 2232.43 107.153 2229.6 107.153H2174.28C2171.72 107.153 2169.45 109.139 2169.45 111.975V453.505C2169.45 456.058 2171.44 458.327 2174.28 458.327H2229.6C2232.15 458.327 2234.42 456.342 2234.42 453.505V331.53C2234.42 307.986 2238.39 289.548 2246.9 277.067C2255.41 264.302 2268.46 258.062 2285.77 258.062C2303.08 258.062 2303.36 260.047 2309.6 263.735C2315.84 267.423 2320.1 272.812 2322.94 279.053C2328.61 291.534 2329.18 308.554 2329.18 326.141V453.789C2329.18 456.342 2331.16 458.611 2334 458.611H2389.32C2391.87 458.611 2394.14 456.626 2394.14 453.789V308.27C2394.14 275.365 2389.32 250.403 2376.84 233.667C2364.64 216.931 2344.78 207.853 2313.86 207.853L2313.57 207.57Z" fill="white"/>
<path d="M2126.61 336.92C2113 325.857 2092 318.482 2063.07 312.809L2021.36 304.866C2010.01 302.88 2001.5 300.327 1995.83 296.356C1992.99 294.371 1990.72 292.101 1989.3 289.265C1987.89 286.428 1987.32 283.308 1987.32 280.187C1987.32 272.245 1991.86 265.721 1999.23 261.182C2006.89 256.643 2017.67 254.374 2031.01 254.374C2053.7 254.374 2071.58 261.466 2080.94 277.067C2082.07 279.053 2084.63 280.187 2087.18 279.336L2133.14 262.317C2135.69 261.466 2137.11 258.345 2135.69 255.792C2116.12 221.186 2076.4 207.57 2032.99 207.57C1989.59 207.57 1977.39 214.378 1957.81 227.143C1937.95 239.907 1925.47 258.913 1925.47 283.308C1925.47 307.703 1933.13 318.482 1946.46 329.828C1959.8 341.459 1979.09 349.117 2002.35 353.656L2042.64 360.748C2057.68 363.584 2067.89 366.988 2074.7 371.243C2078.1 373.512 2080.66 376.065 2082.07 378.902C2083.78 381.739 2084.34 385.143 2084.34 388.547C2084.34 398.758 2077.82 406.134 2068.74 410.956C2059.66 415.778 2047.46 418.048 2034.7 418.048C2021.93 418.048 2006.33 414.927 1994.98 408.97C1986.18 404.148 1979.09 397.624 1974.83 389.398C1973.7 387.128 1970.86 385.71 1968.59 386.561L1922.63 403.297C1920.08 404.148 1918.66 407.268 1920.08 409.821C1939.37 445.279 1981.64 464.852 2033.84 464.852C2086.05 464.852 2093.71 457.76 2114.13 444.144C2134.56 430.529 2147.04 410.389 2147.04 384.008C2147.04 357.627 2140.23 347.699 2126.9 336.636L2126.61 336.92Z" fill="white"/>
<path d="M1831 229.128C1830.15 232.532 1825.89 233.667 1823.06 231.681C1817.67 227.426 1810.86 223.171 1805.47 220.335C1798.37 216.08 1790.43 212.959 1781.92 210.69C1773.69 208.421 1764.9 207.286 1755.53 207.286C1733.41 207.286 1713.55 212.96 1695.96 224.306C1678.65 235.369 1665.03 250.687 1654.82 270.543C1644.89 289.832 1640.07 312.241 1640.07 337.487C1640.07 362.733 1645.18 384.008 1655.39 403.013C1665.6 422.019 1679.5 437.053 1696.81 447.832C1714.4 458.611 1734.54 464.001 1757.24 464.001C1779.93 464.001 1783.34 461.448 1796.1 456.342C1808.59 450.953 1819.08 443.861 1827.59 435.351C1829.01 433.933 1831.85 434.784 1831.85 436.769V447.548C1831.85 463.15 1829.3 475.915 1823.91 485.559C1818.8 495.771 1810.86 503.43 1800.36 508.252C1790.15 513.358 1777.1 515.911 1761.21 515.911C1745.32 515.911 1742.77 515.06 1733.97 513.075C1725.46 511.089 1716.95 508.536 1709.01 504.848C1703.05 502.295 1697.38 499.459 1692.55 496.055C1690 494.353 1686.6 495.204 1685.46 498.04L1666.45 538.037C1665.6 540.023 1666.17 542.575 1667.87 543.71C1679.22 551.936 1693.4 558.461 1710.43 563.85C1729.15 569.807 1748.16 572.927 1767.73 572.927C1787.31 572.927 1805.75 570.091 1821.64 564.417C1837.81 558.744 1851.71 550.234 1862.77 539.171C1874.12 528.392 1882.92 515.06 1888.59 499.175C1894.55 483.29 1897.38 465.136 1897.38 444.428V218.065C1897.38 215.512 1895.4 213.243 1892.56 213.243H1838.94C1836.96 213.243 1834.97 214.661 1834.4 216.647L1831.28 227.994L1831 229.128ZM1825.61 375.782C1820.5 386.561 1812.84 395.071 1802.91 401.028C1793.27 406.985 1782.2 410.105 1769.15 410.105C1756.1 410.105 1745.32 406.985 1735.39 401.028C1725.75 395.071 1718.37 386.561 1713.26 375.782C1708.16 364.719 1705.32 351.954 1705.32 337.771C1705.32 323.588 1707.87 311.107 1713.26 300.328C1718.37 289.548 1725.75 281.039 1735.39 275.082C1745.32 268.841 1756.39 265.437 1769.15 265.437C1781.92 265.437 1793.27 268.557 1802.91 274.514C1812.84 280.471 1820.22 288.981 1825.61 300.328C1830.72 311.107 1833.55 323.588 1833.55 337.771C1833.55 351.954 1831 365.003 1825.61 375.782Z" fill="white"/>
<path d="M1534.82 207.57C1497.65 207.57 1471.55 228.277 1460.49 246.432C1459.35 248.417 1456.23 248.134 1455.66 245.864L1447.72 217.498C1447.15 215.512 1445.17 214.094 1443.18 214.094H1395.52C1392.97 214.094 1390.7 216.363 1390.7 218.916V453.789C1390.7 456.342 1392.68 458.611 1395.52 458.611H1450.84C1453.39 458.611 1455.66 456.626 1455.66 453.789V331.814C1455.66 308.27 1459.64 289.832 1468.15 277.351C1476.66 264.586 1489.71 258.345 1507.01 258.345C1524.32 258.345 1524.6 260.331 1530.84 264.019C1537.09 267.706 1541.34 273.096 1544.18 279.336C1549.85 291.818 1550.42 308.837 1550.42 326.424V454.073C1550.42 456.626 1552.41 458.895 1555.24 458.895H1610.56C1613.12 458.895 1615.39 456.909 1615.39 454.073V308.554C1615.39 275.649 1610.56 250.687 1598.08 233.95C1585.88 217.214 1566.02 208.137 1535.1 208.137L1534.82 207.57Z" fill="white"/>
<path d="M1289.42 453.789C1289.42 456.342 1291.4 458.611 1294.24 458.611H1350.13C1352.68 458.611 1354.95 456.626 1354.95 453.789V218.917C1354.95 216.364 1352.96 214.094 1350.13 214.094H1254.24C1251.68 214.094 1249.41 216.08 1249.41 218.917V258.062C1249.41 260.615 1251.4 262.884 1254.24 262.884H1284.88C1287.43 262.884 1289.7 264.87 1289.7 267.707V454.073L1289.42 453.789Z" fill="white"/>
<path d="M1319.77 106.87C1297.36 106.87 1279.77 124.74 1279.77 146.866C1279.77 168.992 1297.36 187.43 1319.77 187.43C1342.18 187.43 1359.49 169.559 1359.49 146.866C1359.49 124.173 1341.9 106.87 1319.77 106.87Z" fill="white"/>
<path d="M1222.46 404.148C1217.92 403.297 1214.23 401.879 1211.4 399.326C1205.44 394.22 1203.74 386.277 1203.74 374.647V112.259C1203.74 109.706 1201.75 107.437 1198.92 107.437H1143.59C1141.04 107.437 1138.77 109.422 1138.77 112.259V392.234C1138.77 420.884 1143.59 437.053 1154.94 446.13C1166.29 455.491 1185.01 458.611 1214.23 458.611H1251.68C1254.24 458.611 1256.51 456.626 1256.51 453.789V410.105C1256.51 407.552 1254.52 405.283 1251.68 405.283H1238.63C1232.39 405.283 1227 404.999 1222.46 404.148Z" fill="white"/>
<path d="M1072.38 281.89C1052.81 267.139 1025.57 258.629 994.084 251.821L949.543 241.893C936.209 239.056 925.712 234.518 918.619 227.994C911.243 221.469 907.555 212.96 907.555 202.464C907.555 191.968 914.08 179.487 924.577 172.679C935.074 165.872 949.826 162.468 966.565 162.468C995.218 162.468 1018.77 173.814 1030.4 194.805C1031.53 197.074 1034.37 198.209 1036.64 197.358L1089.12 177.218C1091.68 176.367 1092.81 173.247 1091.68 170.977C1069.83 125.875 1021.89 106.586 972.522 106.586C923.159 106.586 902.165 116.514 878.05 134.101C854.219 151.688 839.467 177.218 839.467 208.988C839.467 240.758 847.978 254.374 863.865 269.692C880.036 285.01 903.583 295.789 934.223 302.313L975.359 311.107C996.069 315.362 1010.82 320.468 1020.75 327.559C1025.57 331.247 1029.55 335.218 1031.82 340.324C1034.37 345.146 1035.5 350.82 1035.5 357.06C1035.5 373.513 1027.56 384.575 1015.36 391.667C1003.45 398.758 987.275 401.595 971.104 401.595C936.209 401.595 906.704 385.426 895.356 357.627C894.221 355.074 891.384 353.656 888.831 354.791L836.63 374.647C834.077 375.498 832.942 378.335 834.077 380.888C855.071 430.529 903.583 458.328 969.118 458.328C1034.65 458.328 1038.62 448.399 1063.31 429.678C1087.99 410.956 1103.59 383.724 1103.59 348.55C1103.59 313.376 1091.96 296.073 1072.67 281.606L1072.38 281.89Z" fill="white"/>
</svg>
